<?xml version="1.0" standalone="no"?>
<!DOCTYPE svg PUBLIC "-//W3C//DTD SVG 20010904//EN"
 "http://www.w3.org/TR/2001/REC-SVG-20010904/DTD/svg10.dtd">
<svg version="1.0" xmlns="http://www.w3.org/2000/svg"
 width="172.000000pt" height="172.000000pt" viewBox="0 0 172.000000 172.000000"
 preserveAspectRatio="xMidYMid meet">
<metadata>
Created by potrace 1.16, written by Peter Selinger 2001-2019
</metadata>
<g transform="translate(0.000000,172.000000) scale(0.100000,-0.100000)"
fill="#000000" stroke="none">
<path d="M1676 1711 c-3 -4 -24 -11 -46 -15 -55 -9 -78 -24 -100 -67 -23 -44
-14 -98 23 -138 19 -20 24 -33 20 -59 -9 -58 11 -88 120 -179 27 -23 27 -23
27 -2 0 11 -4 17 -10 14 -14 -8 -120 97 -120 120 0 17 1 17 19 1 26 -24 39
-14 39 30 0 42 -24 57 -44 29 -11 -15 -14 -15 -14 -4 0 19 48 65 78 74 13 4
29 2 37 -5 22 -18 18 0 -4 24 -11 12 -25 42 -32 68 -11 41 -11 52 4 83 15 31
17 49 3 26z"/>
<path d="M286 1508 c-23 -17 -32 -19 -47 -10 -10 7 -25 12 -34 12 -13 0 -17
-10 -30 -75 -2 -11 -18 -25 -35 -32 -37 -14 -38 -28 -2 -47 27 -15 27 -16 5
-22 -23 -6 -33 -44 -12 -44 5 0 8 4 4 9 -3 5 -1 12 4 15 4 3 9 -18 9 -47 0
-55 34 -159 77 -235 14 -25 25 -47 25 -50 0 -3 -56 -2 -125 1 -79 4 -125 3
-125 -3 0 -10 89 -15 202 -11 51 2 58 -1 76 -26 28 -40 54 -94 49 -100 -3 -2
-27 5 -54 17 -52 24 -175 37 -237 26 l-36 -7 0 -194 0 -193 38 -7 c35 -6 38
-9 34 -31 -3 -19 -11 -24 -33 -24 -15 0 -31 -5 -34 -10 -8 -13 95 -1 139 16
10 4 16 1 16 -8 0 -16 -46 -32 -118 -44 -23 -4 -42 -10 -42 -15 0 -12 4 -11
75 6 80 19 82 19 57 -8 -11 -12 -22 -38 -24 -57 l-3 -34 -53 3 -52 2 0 -49 c0
-31 5 -52 13 -55 10 -4 10 -6 0 -6 -8 -1 -13 -14 -13 -31 0 -33 14 -38 120
-43 l55 -2 -40 -25 c-28 -17 -54 -24 -87 -24 -40 0 -48 -3 -48 -18 0 -17 21
-18 435 -18 l435 0 -5 23 c-4 15 4 44 23 82 l29 58 12 -36 c10 -31 10 -40 -3
-59 -17 -24 -22 -68 -7 -68 5 0 11 14 15 30 7 38 21 38 35 0 14 -43 21 -37 17
15 -3 45 -3 45 28 45 17 -1 135 -4 261 -9 127 -4 266 -5 310 -1 51 3 -28 7
-214 11 -209 4 -295 9 -300 18 -4 6 -14 9 -22 6 -17 -6 -78 127 -86 187 -8 53
-23 48 -23 -9 0 -31 10 -69 32 -115 31 -68 31 -91 0 -72 -37 24 -57 208 -26
249 12 17 29 21 105 24 49 1 95 -1 102 -7 6 -5 25 -12 42 -16 16 -4 33 -12 36
-17 9 -16 349 -129 386 -129 35 0 37 -4 48 -85 7 -51 45 -139 52 -119 2 7 -5
38 -16 70 -23 70 -35 195 -22 244 5 21 10 27 10 15 1 -13 7 -7 16 19 14 39 11
66 -7 66 -5 0 -6 5 -2 11 4 8 -1 9 -17 4 -22 -7 -23 -7 -9 10 14 17 13 18 -2
12 -17 -6 -43 15 -31 26 3 4 0 14 -7 22 -19 23 4 61 51 82 36 17 39 21 39 61
0 35 -4 45 -20 49 -20 5 -20 6 1 35 31 43 16 45 -19 3 -28 -35 -31 -36 -76
-30 l-47 7 28 18 c15 10 48 36 73 59 44 42 45 42 51 19 4 -13 7 22 7 77 -1 55
-3 90 -5 78 -4 -21 -23 -33 -23 -15 0 5 -26 7 -57 5 l-58 -4 35 30 c27 23 32
33 23 41 -8 9 -20 9 -45 1 -39 -12 -104 0 -121 23 -16 22 -124 49 -164 41 -21
-4 -33 -2 -33 5 0 6 -5 8 -10 5 -6 -3 -10 -1 -10 4 0 6 -18 2 -42 -8 -24 -11
-72 -33 -108 -49 -36 -16 -83 -44 -105 -63 -38 -34 -85 -121 -85 -159 0 -10
-11 -36 -25 -56 -14 -21 -32 -61 -41 -91 l-15 -53 -64 0 c-60 0 -64 1 -90 36
l-27 36 41 42 c22 23 41 45 41 49 0 3 -25 23 -56 42 -48 31 -55 40 -51 61 3
17 -3 34 -18 52 -21 25 -30 27 -114 30 l-90 4 -47 56 c-56 69 -83 120 -86 164
-3 33 -3 33 49 38 29 3 60 13 71 23 11 10 44 22 74 26 59 8 102 27 93 41 -3 5
-28 12 -56 16 -41 6 -52 11 -60 31 -6 16 -5 30 3 43 15 24 8 32 -39 39 -31 5
-38 11 -45 39 -10 38 -30 41 -72 10z m116 -183 c-5 -45 -34 -69 -95 -75 -48
-5 -52 -7 -55 -33 -5 -43 38 -123 127 -237 110 -139 135 -189 82 -160 -17 9
-22 8 -27 -5 -7 -16 -34 -21 -34 -6 0 5 -9 12 -19 16 -39 12 -203 314 -205
377 -1 15 -4 28 -8 28 -5 0 -8 20 -8 44 l0 43 52 7 c42 6 55 4 64 -8 6 -9 18
-16 27 -16 30 0 67 23 67 42 0 13 6 18 18 16 12 -3 16 -12 14 -33z m493 -565
c-12 -20 16 -41 45 -35 27 6 27 5 21 -27 -5 -18 -13 -32 -20 -30 -7 1 -10 -2
-6 -8 3 -6 11 -8 16 -5 12 8 12 4 -6 -39 -9 -20 -22 -90 -30 -154 -8 -65 -26
-151 -42 -195 -26 -75 -27 -77 -60 -77 -18 0 -33 2 -33 5 0 3 9 37 20 76 10
39 24 125 30 192 16 184 18 200 35 246 16 46 24 61 31 61 3 0 2 -5 -1 -10z
m-238 -99 c56 -73 63 -139 17 -160 -34 -15 -35 -15 -18 17 19 37 18 46 -12 81
-29 35 -67 40 -113 16 -35 -18 -61 -78 -61 -142 0 -36 -3 -44 -12 -35 -6 6
-12 37 -12 69 -1 50 3 63 29 96 38 48 72 67 127 68 l43 1 -35 12 c-24 9 -30
15 -20 19 24 9 33 3 67 -42z m-24 -73 c31 -36 17 -88 -25 -88 -16 0 -18 -10
-16 -104 3 -90 0 -107 -16 -125 -11 -12 -26 -21 -35 -20 -10 0 -8 3 7 9 12 6
22 18 22 30 0 26 -16 26 -23 -1 -3 -12 -10 -18 -16 -15 -5 4 -12 -3 -16 -14
-3 -11 -11 -20 -17 -20 -7 0 -8 20 -4 59 5 45 3 62 -8 74 -8 8 -12 17 -9 21 3
3 6 34 7 68 1 37 10 78 20 100 28 58 90 71 129 26z m-300 -218 c9 -11 17 -29
17 -40 0 -11 2 -20 5 -20 12 0 55 45 55 57 0 10 10 13 33 11 31 -3 32 -4 35
-55 2 -29 -2 -61 -7 -70 -6 -10 -11 -12 -11 -5 0 8 -22 12 -78 12 -76 0 -79 1
-77 23 2 12 -4 32 -11 44 -32 52 0 88 39 43z"/>
</g>
</svg>
